<svg xmlns="http://www.w3.org/2000/svg" fill="#FFF" viewBox="0 0 512 512">
	<path d="M256 0C168 0 96.4 71.6 96.4 159.6v192.8C96.4 440.4 168 512 256 512s159.6-71.6 159.6-159.6V159.6C415.6 71.6 344 0 256 0zm140.5 159.6v2.5c-41.2 21.7-87.3 33.5-134.1 34.5v-53.4c13.5-2.9 23.6-15 23.6-29.3v-40c0-14.4-10.1-26.4-23.6-29.3V19.3c74.5 3.3 134.1 65 134.1 140.3zM256 56.7c9.5 0 17.3 7.7 17.3 17.3v40c0 9.5-7.7 17.3-17.3 17.3-9.5 0-17.3-7.7-17.3-17.3V74c0-9.6 7.8-17.3 17.3-17.3zm-6.4-37.4v25.3c-13.5 2.9-23.6 15-23.6 29.3v40c0 14.4 10.1 26.4 23.6 29.3v53.4c-46.8-1-92.9-12.9-134.1-34.5v-2.5c0-75.3 59.6-137 134.1-140.3zm6.4 473.6c-77.5 0-140.5-63-140.5-140.5V176.5c43.4 21.6 91.6 33 140.5 33 48.8 0 97.1-11.4 140.5-33v175.9c0 77.4-63 140.5-140.5 140.5z"/>
</svg>