<svg xmlns="http://www.w3.org/2000/svg" fill="#F6F6F6" viewBox="0 0 800 800">
	<path d="M655,239.7c0-6.7-3.6-12.8-9.4-16.2L409.4,87c-5.8-3.4-13-3.3-18.8,0L154.7,224.1c-5.8,3.4-9.3,9.5-9.3,16.2l0.3,273.7c0,6.7,3.6,12.8,9.4,16.2l236.2,136.5c5.8,3.4,13,3.3,18.8,0L646,529.6c5.8-3.4,9.3-9.5,9.3-16.2L655,239.7z M459.8,507l-20.4-68h-75.8l-18.9,68h-61.7l80.5-256h78.6l82.5,256H459.8z"/>
	<path d="M400.9,285h-0.8c-3.9,18-7.9,42.1-12.2,57.5L372.2,405h58.5l-16.5-62.5C409.6,326.7,404.8,303,400.9,285z"/>
</svg>