<?xml version="1.0" encoding="utf-8"?>
<!-- Generator: Adobe Illustrator 17.1.0, SVG Export Plug-In . SVG Version: 6.00 Build 0)  -->
<!DOCTYPE svg PUBLIC "-//W3C//DTD SVG 1.1//EN" "http://www.w3.org/Graphics/SVG/1.1/DTD/svg11.dtd">
<svg version="1.1" id="Layer_1" xmlns="http://www.w3.org/2000/svg" xmlns:xlink="http://www.w3.org/1999/xlink" x="0px" y="0px"
	 viewBox="0 0 105.9 36.1" enable-background="new 0 0 105.9 36.1" xml:space="preserve">
<path fill="#8DC049" d="M0.9,26.4l0-16c0-0.4,0.2-0.8,0.5-0.9l13.8-8c0.3-0.2,0.8-0.2,1.1,0l13.8,8c0.3,0.2,0.5,0.6,0.5,0.9l0,16
	c0,0.4-0.2,0.8-0.5,0.9l-13.8,8c-0.3,0.2-0.8,0.2-1.1,0l-13.8-8C1.1,27.2,0.9,26.8,0.9,26.4z"/>
<g>
	<path fill="#FFFFFF" d="M13.6,22.4l-1.1,4H8.9l4.7-15.5h4.6l4.8,15.5h-3.8l-1.2-4H13.6z M17.6,19.8l-1-3.3c-0.3-0.9-0.6-2.1-0.8-3
		h0c-0.2,0.9-0.5,2.1-0.7,3l-0.9,3.3H17.6z"/>
</g>
<g>
	<path fill="#FFFFFF" d="M34.3,22.9c0.9,0.5,2.4,1,3.9,1c1.6,0,2.5-0.7,2.5-1.7c0-1-0.7-1.5-2.6-2.2c-2.6-0.9-4.3-2.3-4.3-4.6
		c0-2.6,2.2-4.6,5.9-4.6c1.8,0,3,0.3,4,0.8l-0.8,2.8c-0.6-0.3-1.7-0.7-3.2-0.7c-1.5,0-2.3,0.7-2.3,1.5c0,1,0.9,1.4,2.9,2.2
		c2.7,1,4,2.4,4,4.6c0,2.6-2,4.8-6.2,4.8c-1.8,0-3.5-0.5-4.4-1L34.3,22.9z"/>
	<path fill="#FFFFFF" d="M50.1,11v15.5h-3.5V11H50.1z"/>
	<path fill="#FFFFFF" d="M53.1,26.5V11h4.1l3.2,5.7c0.9,1.6,1.8,3.6,2.5,5.3h0c-0.2-2-0.3-4.1-0.3-6.5V11H66v15.5h-3.7l-3.3-6
		c-0.9-1.7-2-3.7-2.7-5.5h-0.1c0.1,2.1,0.2,4.3,0.2,6.8v4.7H53.1z"/>
	<path fill="#FFFFFF" d="M72,13.9h-4.2V11h11.9v2.9h-4.2v12.6H72V13.9z"/>
	<path fill="#FFFFFF" d="M90.8,19.9h-5.7v3.7h6.4v2.9h-9.9V11h9.5v2.9h-6v3.2h5.7V19.9z"/>
	<path fill="#FFFFFF" d="M92.9,24.6l7.4-10.6v-0.1h-6.7V11h11.2v2l-7.2,10.5v0.1h7.3v2.9h-12V24.6z"/>
</g>
</svg>
