<svg xmlns="http://www.w3.org/2000/svg" viewBox="0 0 420 298">
  <path fill-rule="evenodd" clip-rule="evenodd" fill="#FFF" d="M167.2 245.3V286c-4.5.4-9 .7-13.6.7C77.8 286.7 16 224.9 16 149.2S77.8 11.7 153.6 11.7c4.6 0 9.1.2 13.6.7v40.7c-4.5-.6-9-1-13.6-1-53.5 0-97.1 43.6-97.1 97.1 0 53.5 43.6 97.1 97.1 97.1 4.6-.1 9.1-.4 13.6-1zM295.1 128.2h79.4v42h-79.4c9.6 43.4 48.5 76 94.8 76 4.6 0 9.2-.3 13.6-1V286c-4.5.4-9.1.7-13.6.7-75.8 0-137.5-61.8-137.5-137.5S314.1 11.7 389.9 11.7c4.6 0 9.1.2 13.6.7v40.7c-4.5-.6-9.1-1-13.6-1-46.3 0-85.1 32.7-94.8 76.1z"/>
</svg>
