<svg xmlns="http://www.w3.org/2000/svg" viewBox="0 -5 313.3 196">
  <path fill="#FFF" d="M175.3 2.3c22.5-.5 41.8 7.7 59 21.8 2.8 2.3 4 4 .1 6.6-3.4 2.3-6 6.9-9.6 7.7-3.7.9-6.6-4-10-6.2-30.9-20.3-73.1-13.8-96.2 15.1-23.5 29.3-20.6 72.1 6.6 97.7 24.1 22.7 58.4 26.6 87 9.8 3.1-1.8 4.4-1.6 6 1.4 1.3 2.5 2.8 5 4.7 7 3.1 3.2 1.7 4.7-1.5 6.6-45.3 27-107.6 10.6-130.1-42.5C68.5 73.4 102.5 12.5 160.3 3c5-.9 10-.6 15-.7z"/>
  <path fill="#FFF" d="M128.9 9c-6.1 3.7-11.5 7.2-16.3 11.6-2 1.8-4.1.8-6.2.6-31-3.9-55.8 6.7-73 32.8C6 95.5 30.3 153.3 79 163.5c9.9 2.1 19.8 2.4 29.7.3 1.7-.4 3.2-.4 4.6.9 4.6 4.1 9.7 7.5 15.1 10.7-23.7 12.2-68.9 11.3-99.1-19.8-30.2-31.3-34.2-79.7-8.5-116C46.4 3.5 92.1-6.3 128.9 9zM257 82.5h46.5c6.1 0 7.5 1.5 7.5 7.7 0 6-1.3 7.3-7.4 7.3h-22.9c-6.5 0-6.5 0-6.5 6.3v71.9c0 6-.8 6.7-7.1 6.7-6.9 0-7.5-.4-7.5-6.6-.1-13.3 0-26.6-.1-39.9 0-1.6 1-4.3-1.9-4.2-2.3.1-1.6 2.6-1.6 4.1v39.5c0 6.9-.4 7.2-8.1 7.1-6.1 0-6.8-.7-6.8-7 0-24.4-.1-48.8.1-73.3 0-3.6-.7-4.9-4.6-4.7-9 .3-17.9.1-26.9.1-5.4 0-7.3-2.1-7.3-7.7 0-5 2.2-7.2 7.3-7.2 15.7-.1 31.5-.1 47.3-.1z"/>
  <path fill="#FFF" d="M103.5 29.4c-4.7 6-8.8 11.4-12.1 17.4-1.1 2.1-3.2 1.6-4.8 2-16.8 4.1-28.2 14.1-34 30.5-1.3 3.6-.7 5.1 3.5 4.9 7-.3 14 0 21-.1 2.2 0 3.7 0 3.3 3.1-.5 3.5 1.3 8.6-.5 10.5-2.2 2.4-7.2.6-11 .7-4.8.1-9.6.2-14.4 0-3.2-.2-3.7 1-3 3.8 4.7 18.2 16 29.9 34.4 34.2 4 .9 6.4 2.5 8.3 6 1.5 2.8 3.4 5.3 5.4 7.8 2.1 2.6 1.3 3.2-1.7 3.3-23.2 1-42-7.7-55.2-26.8-13.9-20.1-15.4-41.9-4.4-63.6 11.3-22.4 30.5-33.4 55.4-34.5 2.9-.2 5.8.4 9.8.8zM131.2 98.4c-6.8 0-13.6-.1-20.3.1-2.9.1-4.1-.6-4.2-3.8-.3-10.6-.4-10.6 10.1-10.6 6.3 0 12.7-.1 19 0 3.1.1 3.6-.9 2.7-3.8-2.9-9.8-8.4-17.7-16.6-23.6-2.5-1.8-2.8-3-.8-5.4 11.3-13.1 9-12.8 20.1-.7 11.1 12.1 15.7 27.1 15.1 43.6-.1 3.6-1.5 4.4-4.8 4.3-6.8-.2-13.6-.1-20.3-.1zM271.2 61.8c0 8-6.3 14.2-14.3 14.1-7.3-.1-13.6-6.5-13.7-13.8-.1-7.7 6-14.1 13.7-14.3 7.9-.2 14.3 6 14.3 14zM149.8 119.1c-.9 1.4-2.2 3.7-3.6 6-3.6 6.1-8.6 10.9-13.9 15.4-2.4 2-4.2 2.3-6.1-.3-2.1-2.8-5.5-5.2-6.1-8.3-.7-3.4 4.1-4.3 6.3-6.5a55 55 0 0 0 9.1-12.4c1.2-2.2 2.2-2.3 4.2-1.3 2.8 1.5 5.7 2.7 8.5 4.1.9.4 2.4.6 1.6 3.3z"/>
</svg>
