<svg xmlns="http://www.w3.org/2000/svg" viewBox="0 10 300 300">
  <path fill="#FFF" d="M288.6 124.2c-2.6-6.9-8-13.1-14.6-17.5-19-12.1-47.9-12.9-67.4-2-10.7 5.4-17.7 16.2-19.9 27.3-4 18.2-2.9 39.9 11.1 53.5 16.4 14.3 40.2 17.5 61.3 11.6 1-.2 4.2-1 6.4-2.2l.6-.3c6.6-2.7 12.8-7.2 17.5-13.2 10.8-15.8 11.5-39.4 5-57.2zm-34.5 40.9c-.7 3.5-3.1 7-6.7 8.3-5.8 2.6-13.7 1.9-19.1-1.1-4.5-3.2-5.1-8.5-5.7-13.5-.4-9.9-1.2-20.4 1.6-29.4 2.2-5.6 8.2-7 13.6-7.5 5.7 0 11.2.9 14.7 5.5 2.2 3.3 2.1 7.6 2.5 11.5-.2 8.1.6 17.8-.9 26.2zm-173 8.9c-4.8-.3-10.2.1-14.9-.4l.1-50.4.3-.4 14.5-.1c.2-8.2.3-16.9-.1-24.4l-55-.1-9.1.1c-.1 8.1-.1 16.2 0 24.2 5 .2 9.6 0 14.4.5v48.8l-.1 2-14.5.2c-.3 7.9-.3 15.8 0 23.7h64.4V174zm162 34.4a112 112 0 0 1-22.3 23.8c-.3.4-1.2.3-1.5-.1-3.7-2.3-7.6-4.2-11.1-6.4 4.7-5.6 9.2-11.2 12.7-17.4h-4.5c-3.6 5.3-7.4 10.9-12.3 15.6-6.4-2.6-12.3-4.9-18.8-6.6l-.7-.6c1-2.9 2.9-5.6 3.5-8.5h-3.9l-3.9 7.7c-8.6-1.9-18.1-2.9-26.9-3.4-.4-1.3.1-3.2-.4-4.3h-3.8c-.3 1.7.4 3-.4 4.5-9.1.4-17.8 1.4-26.3 3.2l-3.9-7.6c-1.5 0-3.1-.3-4.1.1l3.6 8.5-.4.4c-6.5 1.9-13 4.1-19.3 6.7l-.6-.3c-4.1-4.5-8-9.3-11.3-14.2-.7-2.4-3.7-1-5.3-1.3 3.5 6.3 8.2 11.9 12.8 17.7-3.9 2.3-7.9 4.9-12 6.7-8.9-6.8-16.7-15-23.1-24.3-1.8-.3-2.9-.2-4.7 0 10.5 16.4 26.9 30.7 44 39.2 0 0 0-.1.1-.1s.4.3.1.4c11.5 5.6 23.8 9.6 36.8 11.3 44.8 5.9 87.6-13.2 112.4-50.8-1.1-.1-3-.1-4.5.1zm-60.8 12.9l.4-.3a75 75 0 0 1 17.8 6.2c-4.7 5.3-10.7 9.9-16.2 13.8-3.4 2-6.7 4.2-10.2 5.9l-6.3-2.7.4-1c5.3-7 10-14.3 14.1-21.9zm-28.8-4.3c8.3.1 16.7 1 24.4 2.9l.1.4c-4.1 7.7-9.2 15.2-14.7 22.2-2.5.3-4.8-.7-7.3-.9l-2.5-.3c-.3-8.4-.4-15.8 0-24.3zm-28.2 2.6c7.6-1.4 15.5-2.6 23.6-2.6l.1 24.3c-3.1.7-6.4.7-9.4 1.4-6-7.1-10.9-14.7-15.2-22.6l.9-.5zm-23.5 7.7a94.2 94.2 0 0 1 17.8-6.3l.6.1c4.2 7.9 9.5 15.3 14.7 22.8-2 1.2-4.5 1.9-6.6 3a99.26 99.26 0 0 1-26.6-19.2l.1-.4zm18.9 24.6c-12.3-3.2-23.7-8.6-34.2-16.1v-.4c3.5-2.1 7-4.4 10.8-6 8.3 8.2 16.9 14.4 26.3 20.2-.9.9-1.9 1.7-2.9 2.3zm54.1 1.8c-15.5 3.3-32.7 3.4-48.2-.3-.3-.7.7-.9 1.2-1.3 13.6-8.8 34.7-8.8 48 .7.5.9-.7.7-1 .9zm14-4l-6.9 2.1c-1.2-.6-2.2-1.4-3.2-2.3l.3-.4c9.3-5.4 17.8-12 25.8-19.9 3.9 1.6 7.7 3.7 11.3 6.2-8.1 6.4-17.6 10.7-27.3 14.3zM58.7 87.2c3.6-5 7.6-9.7 11.8-14.2 3.8-3.6 7.3-7 11.4-9.6 3.8 2.4 8 4.5 11.7 6.8-4.5 5.6-9.2 11.2-12.6 17.2 1 .4 2.9.3 4.4 0 3.7-5.3 7.6-10.6 12.3-15.3 6.3 2.3 12.4 4.7 18.8 6.5l.6.6-3.7 8.3c1.6.3 2.6.1 4.2 0 1.3-2.4 2.3-5.2 3.8-7.6 8.5 1.9 17.4 2.9 26.4 3.2 1.2 1 .3 3.2.7 4.4h3.9c.4-1.4-.1-3 .4-4.3 8.5-.4 17.4-1.3 25.6-3.3l.7.1 3.9 7.5c1.3 0 3.1.3 4.1-.3l-3.7-8.3.3-.3c6.7-1.7 13-4.3 19.4-6.9 4.5 4.7 8.8 10.3 12.6 15.8 1.6 0 3.2.1 4.4-.3-1.8-3.2-3.9-6.2-6.3-9-1.9-2.7-3.9-5.1-6.4-7.7v-.7l10.2-5.9 1.5-.6c8.9 6.7 16.7 14.8 23.1 23.9 1.8 0 3.2.6 4.7-.1a115.44 115.44 0 0 0-86.7-50.8l-.2.3-.3-.3c-3.9-.4-8.8-.6-13-.2-1.6-.1-3.5 0-5.4.2C106.3 39 74 57 53.8 87.5c1.7-.3 3.5.2 4.9-.3zm60.6-12.7l-.6.1c-6-1.6-11.8-3.4-17.4-5.9l.3-.9c8-7.6 16.5-13.9 25.8-18.8 2.2.9 4.4 1.6 6.6 2.6l-.4 1.1c-5.5 7.1-9.9 14.5-14.3 21.8zm29.1 3.9c-4.1.6-7.7-.1-11.8-.4-3.9-.6-8.9-1-12.8-2.3 4.2-7.9 9.2-15.5 15.2-22.5l9.3 1.3c.4 7.4.1 16 .1 23.9zm4.5.2c-.3-7.6-.1-16.1 0-24 2.9-.4 6.1-.9 9.1-1.3 5.7 7.2 11.3 14.5 15.1 22.4-8 1.8-16 2.9-24.2 2.9zm46.6-10.1c-5.7 2.4-11.6 4.7-17.8 6-4.5-7.6-9.5-15.2-15.1-22.5 2.1-1.1 4.5-2 6.7-3.1 9.5 4.7 18.7 11.5 26.4 19.2l-.2.4zM180.8 44c12.3 3.2 23.8 8.6 34.3 16.1l-.3.6-10.1 5.6h-.7c-7.7-7.7-16.8-14.5-26-19.8.3-1.1 1.8-1.8 2.8-2.5zm-5.8-1.5v.3c-12.7 9.2-33.3 10-46.7 1.6-.8-.6-2.2-.9-2.3-1.9 15.4-3.6 33.6-3.8 49 0zM85.9 60.3c9.2-6.7 19.4-11.8 30.2-15.2.4-.4.7-.9 1.3-.9v.3c1.2.3 2.1-1 3.1-.2.9.7 1.9 1.3 2.6 2-9.1 5.6-18 12.2-26.1 20.2-3.9-1.4-7.6-3.6-11.1-6v-.2zm62.6 114.8c-13.7 3.7-28.6.9-38.6-9.5-1.2-1.4-1.9-3.1-3.1-4.6l-19.7.1c-.3 11.6-.4 25 0 36.4l21.9-.1.3-6.9c2.5 1.1 5 2.6 7.4 3.9 15.2 6.3 34.7 7.8 49.8 0 11-6 16.8-17.6 15.2-30.1-1.6-12.2-13.3-23.2-25.1-26.2l-35.3-10.2-2.6-1.3c-1.2-1-1.9-2.3-1.6-3.9 2.8-4.7 9.2-3.3 14-3.2 10.2 1.4 20.7 4.9 26.7 14.2 6.4 0 13.9.1 20.9-.1.3-11.8-.1-22.1-.3-34-6.6-.1-14.6-.1-21.2.1-.3 1.7.3 4.1-.4 5.9l-6.7-3.6c-16.1-6.7-38.6-7.4-53.1 3-9.5 6.9-12.4 19.2-9.9 30.1 1.9 10.3 11.8 17.9 21.3 21.5 13 4.6 26.6 7.9 39.7 12.3 1.3.6 3 1.9 2.8 3.5 0 1.4-1.3 2.2-2.4 2.7z"/>
  <text transform="translate(19.33 295.67)" fill="#FFF" font-family="'MyriadPro-Regular'" font-size="36">
    ISO 9001 certified
  </text>
</svg>
