<svg xmlns="http://www.w3.org/2000/svg" viewBox="0 0 101.9 72.2">
  <path fill="#FFF" d="M27.2 67.7c14.7-.5 22.2-8.4 24.1-22.4-.1-.1-.2-.1-.3-.2l-.3 1.3c-.8 3.1-2.1 5.9-4 8.4-4 5.5-9.6 8.3-16.4 8.9-3.3.3-6.6.2-9.8-.9-3-1-5.6-2.7-7.5-5.1-1.6-1.9-3-4-4.4-6.1a9.2 9.2 0 0 0-4.1-3.7c-.9-.4-1-.7-.2-1.3 1.1-.6 2.1-1 3.1-1.6.3-.2.7-.2 1.1-.3 0-.1.1-.2.1-.3-.8-.5-1.5-1-2.3-1.4-.4-.3-.9-.4-1.4-.6-1.4-.6-1.4-.8-.3-1.8 1.1-1 2.4-1.2 3.7-1.4.4-.1.8-.1 1.4-.1-3-1.3-4.8-3.5-6.1-6.2-1.3-2.6-2-5.3-1.6-8.3.1-.4.3-.8.5-1.2.4.2.9.4 1.2.7C5.2 25.9 7 27.4 9 28.6c4 2.6 8.4 4.4 13 5.5 4.9 1.2 9.8 1.8 14.8 1.9 5.7.1 9.9-2.2 12.3-7.5 1.2-2.5 2.2-5.1 3.2-7.6.9-2.2 1.8-4.5 2.8-6.7.6-1.2 1.5-2.3 2.3-3.5-1.5-1.3-2.1-2.9-1.1-4.8 1.1-2.1 3-2.4 5.1-1.9 1-1.7 2.2-3 4.3-2.8 1.9.2 3.3 1.1 3.7 3.1 3-.8 4.2.3 5.2 1.7.9 1.5.4 2.9-1.4 4.7.3.4.6.9.8 1.3.4 1 .9 2.1 1.1 3.2.1.9.4 1.5 1 2.1 1.2 1.2 2.3 2.6 2.5 4.4.1.5.1 1.1.1 1.7-.8-.2-1.4-.5-2-.6-1.1-.1-2.2-.2-3.3-.2-.3 0-.7.2-1 .4-2.4 2-3.3 4.7-3 7.7.3 3 .8 5.9 1.5 8.8.7 2.9 1 5.8.9 8.7-.1 4.7-1.8 8.9-5 12.4-3.1 3.4-4.7 5.2-11.3 7.2-6.6 2.1-25.3 3-28.3-.1zm43.5-53.4c-.7 0-1.3.6-1.3 1.2 0 .7.6 1.3 1.3 1.3.8 0 1.4-.5 1.4-1.2s-.6-1.3-1.4-1.3z"/>
  <path fill="#FFF" d="M67.4 62.9v-.6-.1-.5c.1-.6.2-1.2.4-1.9.6-1.9 1.4-3.8 2.6-5.5.6-.9 1.3-1.7 2.1-2.5.5-.4 1.1-.8 1.7-1.1.5-.2 1-.4 1.5-.4h.9c.2 0 .4 0 .5.1.6.1 1.2.4 1.8.8.7.5 1.3 1 1.8 1.7.8 1 1.4 2 2 3.1h-.1c-.3.2-.6.3-.9.5-2.2 1.5-3.5 3.5-3.7 6-.1.9 0 1.8.3 2.7.4 1.5 1.2 2.8 2.5 3.9l.2.2c-1.3.8-2.8 1.3-4.4 1.4-.6 0-1.3 0-1.9-.1a8.92 8.92 0 0 1-5.3-2.8 7.58 7.58 0 0 1-1.9-4.4c-.1-.3-.1-.4-.1-.5zm8.7 6.6c0-.1-.9-.4-1.3-.5-1-.2-2-.6-2.8-1.1-2-1.2-3-2.8-3.2-4.9 0-.4-.1-1.3-.3-1.3-.1 0-.1 2 .1 2.7.5 1.7 1.6 3 3.3 4 .8.5 1.7.8 2.6 1 .4.1 1.5.2 1.6.1z"/>
  <path fill="#FFF" d="M86.7 70.8c-1.9-.1-3.6-.7-5.2-1.8-.2-.2-.4-.4-.5-.6-.1-.2-.3-.3-.4-.5-1-1.1-1.7-2.3-2-3.7-.1-.7-.1-1.3-.1-2 .2-1.5.8-2.7 1.8-3.9.7-.8 1.6-1.4 2.6-1.9.6-.3 1.3-.6 2-.7.7-.1 1.3-.2 2-.2.8 0 1.6.1 2.4.2a22.77 22.77 0 0 1 9.4 3.9c.7.5 1.3 1.1 1.7 1.8.3.5.6 1 .7 1.5.1.7 0 1.3-.3 1.9-.3.6-.7 1.1-1.2 1.6-.6.6-1.4 1.1-2.1 1.5-1.2.7-2.4 1.2-3.7 1.6-1.2.4-2.5.7-3.8 1-1.1.3-2.1.4-3.3.3zm-.2-14.5c-.7.1-1.4.2-2.1.5-1.7.6-3 1.7-3.8 3.1-.5.8-1 3.3-.9 3.3.1 0 .8-2.1 1.1-2.8.8-1.5 2.1-2.7 3.9-3.3.7-.2 1.4-.4 2.2-.4.4 0 1.5-.1 1.5-.2-.1-.1-1.5-.2-1.9-.2zM39.3 46.7s-5.5 9.3 2.8 11.8"/>
</svg>
