<svg xmlns="http://www.w3.org/2000/svg" viewBox="0 0 55.2 72.2">
  <path fill="#FFF" d="M32.4 21.9c1.3-1.9 2.8-3.7 3.8-5.6 2.2-4 3.3-8.2 3.4-12.6 0-.8-.4-1.7-.4-2.5 0-.4.6-.9.9-1.3.3.4.8.8.8 1.1-.3 6.3-1.3 12.6-5.2 18.2-.4.5-.7 1.1-1 1.6-.3.5-.5 1.1-.8 1.8.3.2.6.5 1 .7 4.5 2.4 3.7 5.9 1.2 8.9-2.6 3.1-7.8 3.9-11.5 1.8-2.6-1.5-5.1-3.2-6-6-.7-2.2-.4-4.3 1.7-5.9l.1-.1c4.4-3.9 6.9-3.9 12-.1zm-6 2.2c1.7 0 3-.7 3-1.5s-1.5-1.6-3.1-1.5c-1.7 0-3 .7-3 1.5-.1.8 1.3 1.5 3.1 1.5zM8.2 50.6c12.4 5.4 25 5.1 37.6 1.4-.1.2-.2.8-.4 1.3-2.6 5.5-4.6 11.2-5.4 17.3-.1.4-.7 1-1.1 1-7.7.7-15.4.8-23.1 0-.4 0-1-.6-1.1-1.1-1.2-4.4-2.2-8.9-3.5-13.3-.6-2.2-1.9-4.4-3-6.6zm28.3 19.1c.2.1.4.1.7.2l3.3-13.6c-.2 0-.4-.1-.5-.1-2.6 4.1-4 8.6-3.5 13.5zm-18.9.4c1.2-3.2-.8-12.9-3.6-14.4 1.2 4.8 2.4 9.5 3.6 14.4zm14.2-.2c1.2-4.2 1.8-8.5 1.5-12.8-1.7 4.1-2.5 8.3-1.5 12.8zm-4.6.1c1.3-2.6 1.2-10.7-.1-12.5-.8 4.2-.9 8.4.1 12.5zm-5.9-13c-.1 4.3.4 8.5 1.5 12.6.3-4.3.6-8.5-1.5-12.6z"/>
  <path fill="#FFF" d="M40.1 30.4c1.4 1.6 2.6 2.8 3.7 4.1 1.3 1.7.7 3.9-1 5.3-3.3 2.9-7.3 3-11.3 3.2-4.5.2-9.1.1-13.6.4-1.9.1-3.9.9-5.6 1.7-.8.4-1.3 1.5-1.9 2.4-.3.4-.4 1-.8 1.7-1.2-1.4-2.4-2.6-3.4-4-1.3-2-.6-4.3 1.2-5.8 2.6-2.1 5.7-2.6 8.9-2.7 4.9-.2 9.8-.2 14.7-.4 1.4-.1 2.8-.3 4.2-.8 2.3-.8 4.5-1.9 4.9-5.1z"/>
  <path fill="#FFF" d="M12.7 50.4c.5-3.4 2.6-5.2 6.1-5.3 5.6-.1 11.2-.1 16.8-.3 3.3-.1 6.3-1 8.9-3.1.7-.6 1.3-1.2 1.9-1.9 3.2 2.2 3.4 5.8.8 8.6-2.1 2.3-5 2.9-7.8 3.3-7.9 1.1-15.8 1.3-23.7-.4-.9-.2-1.8-.5-2.6-.7-.1 0-.2-.1-.4-.2zM10.3 35.6c0-3.2 1.8-5.5 4.3-5.9 1.2-.2 2.1.1 2.8 1.3.7 1.2 1.9 2.1 2.9 3.2-3.3.1-6.7-.5-10 1.4z"/>
</svg>
