<svg xmlns="http://www.w3.org/2000/svg" viewBox="672.3 65 211.3 170.5">
  <path fill="#FFF" d="M865.6 134.8c1.9-2.8 5.1-4.2 4.2-8.3-3.2.5-6 4.6-8.3-.5-.5-1.4-1.9-2.8-3.7-1.9s-.9 2.8 0 4.6c.5 1.4.9 2.3 1.9 3.2.9 1.4.9 2.8-.9 2.8-10.2 1.4-11.6 9.3-13 17.6-4.2 23.6-18.1 38.9-40.8 45.8-4.2 1.4-8.3 2.8-12.5 4.6-3.2 1.4-5.6 3.7-6 7.4-.5 5.1-2.8 5.1-6.5 2.8-1.9-1.4-4.6-1.9-6 0-.9 1.4 1.4 3.7 2.3 5.1.9 1.4 4.6 1.4 1.4 4.2-.9.9-1.9 2.8-.5 3.7 1.4 1.4 2.8 0 4.2-.9 1.4-.9 2.3-1.4 3.7-2.3 1.9-1.4 3.2-1.4 4.6.5 4.6 6.9 11.6 6.9 19 5.6 9.7-1.9 19-4.6 27.8-9.3 25.5-13.4 41.2-33.8 41.7-63.9-.1-8.8-1.5-17.6-12.6-20.8zm-9.3 14.3c-.9 27.3-22.7 53.3-49.6 58.4-1.9.5-4.2 1.4-5.1-1.4-.5-2.3 1.9-2.8 3.7-3.7 1.9-.9 3.2-1.4 5.1-1.9 23.2-6.9 35.7-23.2 39.8-46.8.5-1.9.5-3.7.9-5.6.5-1.4.5-3.7 2.8-3.2 2.4.5 2.9 2.4 2.4 4.2zM815.6 124.6c-3.2-2.3-5.6-4.2-8.3-1.9-1.4 1.4-1.4 6 .9 9.3 1.4 1.9 3.2 2.8 5.6 2.8h1.9c2.8 0 3.7-.9 4.6-1.9.9-1.4 0-2.8-1.9-5.1-1-1.4-1.9-2.3-2.8-3.2z"/>
  <path fill="#FFF" d="M825.3 176c-14.4 10.7-30.6 13.4-47.7 11.1-1.9-.5-4.2 0-3.7-2.8.5-2.3 2.8-2.3 4.6-1.9h15.7c25.5-.5 55.6-23.6 50-58.8-3.7-25-19-41.7-41.7-51.9-6.9-3.2-14.4-4.2-22.2.5-12.5 7.4-21.8 17.1-27.8 30.1-4.2 9.3-11.1 15.3-19 20.8-9.3 6.5-19.9 11.6-25.9 22.2-.9 1.4-2.3 1.4-3.7 2.3-4.2 1.9-8.8 1.4-13 .5-5.1-.9-9.3 1.4-12 5.6-2.3 3.2-1.9 6.5.5 9.3 2.8 3.7 6 6.9 8.3 10.7.9 1.9 3.2 2.3 5.6 1.4 3.2-.9 5.6-2.3 8.3-4.2 4.2-2.8 8.8-3.7 13.9-2.8 8.3 1.9 16.7 1.4 25 1.4 12-.5 23.6-2.3 35.7.5 14.8 3.2 29.2 2.8 43.1-3.2.9-.5 1.9-1.4 2.8 0-6.5 5.1-14.4 8.3-22.7 10.2-9.3 2.3-19 .5-28.2 0-3.7 0-8.3-.5-10.2 2.8-3.7 6-6.9 6.9-11.1.9-.5-.9-2.3-1.9-3.2-.9-.5.5-.5 1.9-.5 3.2 0 1.4.5 2.8.9 3.7 1.4 1.9 1.4 2.8-.9 3.7-1.4.5-2.8 1.9-1.9 3.2.9 1.9 2.8.9 4.2.9s2.8-.5 4.2-.9c1.9-.5 3.7-.5 4.2 2.3 1.9 6.9 6.9 11.6 13.9 12 6 .5 12.5 2.3 17.1-5.6 2.8-5.1 10.2-6.5 16.2-7.9 11.6-2.8 21.3-8.8 29.2-18.5.9-.9 2.3-1.9 1.4-3.7-5.7.1-7.5 2.4-9.4 3.8zm-113.9-13c-6 .5-11.1 2.8-15.7 6-2.8 1.9-6 3.2-6.9-2.3-.5-2.3-3.2-3.2-4.6-4.6-1.4-1.4-3.7-2.8-2.8-5.6.9-2.3 3.2-3.7 5.1-3.2 8.8 1.4 16.7-1.4 25-2.3 1.9 0 3.2 0 2.8 2.3-.5 2.8 0 4.6 3.7 3.7-1.1 3.2-2.9 5.5-6.6 6zm107.4 0c-3.2 0-6.9-.9-11.1-2.8-24.5-11.6-37-30.6-37-57.9.5-7.4.9-14.8 5.1-21.8 3.2-5.6 6.9-9.3 13.4-9.3 1.4 0 3.2 0 5.6.5 27.3 5.1 51.4 38.4 47.2 65.3-.9 4.6-2.3 9.3-4.6 13.4-5.1 8.4-11.6 12.6-18.6 12.6z"/>
  <path fill="#FFF" d="M836.9 136.6c4.2-24.5-18.1-55.6-43.5-60.2-1.9-.5-3.2-.5-4.6-.5-4.2 0-6.5 1.9-9.3 6.9-3.7 6-4.2 13-4.6 19.5 0 25 11.6 43.1 34.7 53.3 10.2 4.6 17.6 2.3 23.2-7.9 2.2-2.8 3.6-6.9 4.1-11.1zm-13-1.8c-1.9 4.2-6 4.6-8.8 4.6h-1.9c-3.2 0-6.5-1.9-8.8-4.6-3.7-4.6-4.6-12-.5-15.3 1.9-1.4 3.7-2.3 5.6-2.3 3.2 0 6 1.9 8.3 3.7 1.9 1.4 2.8 2.8 3.7 3.7 2 2.3 4.7 5.5 2.4 10.2z"/>
  <path fill="#FFF" d="M815.1 132.9c-4.6-.5-6.9-2.8-7.4-6.9 0-1.4 0-2.3 1.9-2.3 2.3.5 8.3 5.6 8.3 7.4 0 2.3-1.9 1.8-2.8 1.8z"/>
</svg>
